<svg xmlns="http://www.w3.org/2000/svg" preserveAspectRatio="xMidYMid" width="179" height="27" viewBox="0 0 179 27"><defs><style>.cls-1{fill:#000;fill-opacity:0}.cls-1,.cls-2,.cls-3,.cls-4{fill-rule:evenodd}.cls-2{fill:#fffefe}.cls-3{fill:#252122}.cls-4{fill:#ed1d25}</style></defs><path d="M0 .077h178.722v26.922H0V.077z" class="cls-1"/><path d="M178.436 11.614h-3.308c-.383.001-.341-.02-.341.33-.001 2.18.001 4.36-.001 6.541 0 .489.031.975.159 1.449.257.946.845 1.401 1.833 1.42.52.01 1.04.006 1.552-.112.177-.042.19-.027.195.164.022.852.037 1.703.064 2.554.006.164-.049.236-.208.283a7.92 7.92 0 0 1-1.437.273c-.735.075-1.472.117-2.211.018-1.047-.14-1.994-.489-2.746-1.267-.592-.61-.897-1.362-1.072-2.177a9.148 9.148 0 0 1-.194-1.947l-.002-7.071c0-.072.002-.145 0-.218-.006-.234-.006-.238-.245-.239-.603-.003-1.207.001-1.81-.001-.258-.002-.262-.004-.262-.254a504.3 504.3 0 0 1 0-2.46c.001-.239.005-.242.241-.243.582-.002 1.165 0 1.748-.001.378 0 .327.018.328-.341.002-.758 0-1.516 0-2.274.001-.286.001-.288.259-.356 1.174-.316 2.348-.63 3.523-.944.079-.021.159-.049.286-.028V8.366c0 .288.002.29.284.29l3.37.001c.277 0 .28.002.28.265v2.399c0 .29-.002.293-.285.293zm-17.161 2.64c.596.297 1.223.519 1.851.737.669.232 1.32.504 1.928.87.457.273.878.592 1.235.991.746.833 1.046 1.823 1.024 2.923-.031 1.522-.686 2.711-1.935 3.575-.81.56-1.721.88-2.684 1.034-2.1.338-4.165.196-6.173-.541-.244-.09-.476-.207-.714-.311-.091-.04-.115-.092-.085-.195.268-.903.53-1.809.792-2.709.132-.001.211.076.302.12 1.339.645 2.736 1.039 4.238.98.471-.018.93-.105 1.356-.317.7-.349 1.067-1.011.835-1.936-.084-.337-.299-.588-.567-.797-.306-.238-.651-.407-1.004-.561-.496-.216-1.011-.382-1.518-.565-.955-.345-1.857-.786-2.628-1.459-.693-.605-1.196-1.335-1.342-2.256-.228-1.437.184-2.691 1.187-3.74.747-.781 1.683-1.239 2.716-1.514 1.11-.295 2.239-.317 3.375-.212.947.089 1.867.29 2.749.65.475.194.475.197.33.675-.205.674-.413 1.347-.619 2.022-.024.079-.04.161-.094.228-.102.013-.174-.057-.256-.095a7.607 7.607 0 0 0-3.065-.755c-.523-.018-1.04.041-1.517.282-.617.312-.931.805-.891 1.507.019.327.149.599.376.83.23.233.508.395.798.539zm-6.769-2.199c-.581-.075-1.162-.101-1.74 0-1.547.27-2.642 1.334-2.955 2.866a6.189 6.189 0 0 0-.115 1.238c0 2.573.001 5.148-.001 7.721 0 .392.052.35-.345.35-1.154.002-2.309.002-3.463 0-.372 0-.325.034-.326-.34-.002-3.892 0-7.784-.007-11.676a47.51 47.51 0 0 0-.103-3.111c-.007-.103-.009-.207-.014-.31-.004-.09.031-.138.125-.136.063.001.125 0 .188 0l2.933-.001c.359 0 .307-.008.325.324.044.777.087 1.554.133 2.331.005.091-.009.188.079.29.106-.102.124-.218.171-.318.682-1.471 1.78-2.455 3.372-2.851.592-.148 1.192-.148 1.795-.056.145.022.188.078.188.22-.005 1.089-.002 2.18-.004 3.27-.001.217-.006.218-.236.189zm-13.849-5.719a2.21 2.21 0 0 1-.643.072c-.495.013-.925-.087-1.316-.329-.627-.388-.89-1.062-.701-1.775a2.1 2.1 0 0 1 .296-.647c.683-1.016 2.138-1.538 3.308-1.175.676.21 1.141.63 1.249 1.363.06.408-.053.784-.259 1.131-.44.739-1.115 1.154-1.934 1.36zm-3.212-1.874a8.393 8.393 0 0 0-1.985-.124c-.386.02-.764.089-1.131.206-1.003.323-1.664.989-1.982 1.992-.204.643-.217 1.306-.206 1.973.002.105.042.151.147.147.083-.004.167 0 .25 0h8.864c.083 0 .167-.001.25.001.232.004.232.006.237.245v.156c0 4.932.001 9.863-.001 14.795 0 .431.061.375-.381.377-1.134.002-2.268.001-3.402.001-.073 0-.146-.003-.219-.001-.091.002-.13-.043-.128-.133.002-.083 0-.165 0-.248V12.105v-.187c-.002-.302-.002-.303-.304-.303h-4.963c-.342 0-.314-.023-.314.325v11.867c0 .424 0 .424-.435.424h-3.37c-.383 0-.339.022-.34-.331V12.064c0-.45 0-.45-.466-.45-.51 0-1.02-.005-1.529.003-.16.002-.22-.044-.219-.211.006-.841.002-1.681.004-2.523.001-.22.006-.225.226-.226.582-.002 1.165.001 1.748-.001.232-.001.238-.005.236-.242-.011-.76.023-1.515.208-2.256.51-2.044 1.785-3.426 3.703-4.245.955-.409 1.961-.609 2.994-.693a10.907 10.907 0 0 1 1.963.008c.124.012.248.04.371.04.174 0 .197.093.197.238-.004.935-.003 1.87-.004 2.804 0 .039-.009.08-.019.152zm-14.081 6.564l-.234.937c-.06-.013-.103-.017-.139-.032-1.084-.47-2.226-.595-3.389-.534-1.142.061-2.181.42-3.047 1.195-.875.78-1.343 1.78-1.509 2.925-.131.906-.085 1.808.199 2.68.577 1.774 1.826 2.81 3.643 3.149 1.379.256 2.732.068 4.054-.381.097-.033.194-.068.317-.112l.328 1.653c.057.285.111.571.169.855.083.408.084.409-.297.544-.452.159-.915.279-1.384.373-1.24.25-2.495.328-3.756.246-1.192-.077-2.343-.347-3.421-.875-1.817-.89-3.073-2.287-3.704-4.208-.613-1.87-.628-3.764-.001-5.631.827-2.461 2.548-4.06 4.977-4.914 1.577-.554 3.206-.676 4.862-.521.841.079 1.666.238 2.468.507.059.02.116.048.176.061.165.033.182.127.145.274-.157.602-.306 1.206-.457 1.809zm-16.795-4.691a2.396 2.396 0 0 1-.678.076c-.489.006-.918-.097-1.305-.342-.63-.399-.886-1.095-.677-1.81.055-.192.137-.369.242-.536.666-1.059 2.166-1.622 3.358-1.245.699.221 1.168.665 1.251 1.428.041.383-.066.74-.261 1.067-.441.739-1.113 1.154-1.93 1.362zm-9.073 18.053c-2.09.332-4.145.192-6.143-.54-.243-.09-.476-.206-.714-.31-.08-.034-.14-.07-.106-.185.271-.91.536-1.822.808-2.757.63.341 1.264.595 1.924.786.874.252 1.762.404 2.676.342.438-.028.86-.119 1.264-.302 1.178-.531 1.197-2.111.286-2.75a5.61 5.61 0 0 0-1.006-.557c-.495-.215-1.01-.381-1.518-.564-.825-.297-1.611-.671-2.312-1.204-.701-.533-1.278-1.174-1.529-2.032-.465-1.593-.067-2.995 1.046-4.198.734-.792 1.674-1.249 2.706-1.527 1.109-.299 2.238-.326 3.374-.222.946.086 1.868.282 2.75.643.507.206.507.207.352.714l-.612 1.992c-.024.078-.052.155-.076.225-.068.023-.111-.009-.156-.032a7.663 7.663 0 0 0-3.112-.812c-.513-.023-1.019.029-1.497.235-.678.293-1.018.837-.983 1.542.02.376.184.674.46.92.243.216.525.372.816.511.574.271 1.17.484 1.769.692.748.259 1.472.57 2.137 1.005.801.527 1.442 1.191 1.767 2.111.598 1.692.297 3.95-1.736 5.283-.804.528-1.694.842-2.635.991zm-8.946-.157h-.125l-3.09.001c-.28 0-.255-.004-.275-.246-.052-.642-.112-1.282-.171-1.922-.004-.048.01-.104-.067-.151-.112.05-.147.154-.207.236-.947 1.264-2.208 2.023-3.753 2.317a6.917 6.917 0 0 1-2.79-.024c-1.795-.392-3.012-1.465-3.684-3.165-.351-.888-.5-1.817-.553-2.763-.015-.291-.013-.582-.013-.872V9.046 8.89c.005-.225.005-.23.217-.231h3.682c.225.001.226.006.232.219.002.061 0 .124 0 .187.001 2.719 0 5.439.002 8.159.001.656.065 1.305.242 1.939.039.139.082.279.135.414.431 1.101 1.218 1.728 2.419 1.797 1.35.076 2.412-.436 3.153-1.57.312-.477.5-1.001.497-1.581-.001-.165.006-.332.006-.498l.001-8.689c0-.446-.029-.376.388-.377 1.123-.002 2.246 0 3.37 0 .072 0 .145.004.218-.001.114-.007.178.033.17.158-.004.083 0 .166 0 .249.005 4.08.004 8.159.018 12.239.003.851.064 1.701.097 2.551.004.083.005.166.012.249.007.096-.044.129-.131.127zm-17.54-.001c-1.134.003-2.268.002-3.402.001-.315 0-.281.023-.281-.286-.001-2.773.001-5.546-.002-8.317-.001-.656-.061-1.306-.237-1.941a4.027 4.027 0 0 0-.249-.67c-.579-1.228-1.68-1.632-2.822-1.476-1.456.199-2.558 1.402-2.682 2.862-.022.27-.034.539-.034.809.002 2.866.001 5.732.001 8.597 0 .073-.008.147.001.219.022.167-.052.207-.211.206-1.196-.006-2.393-.002-3.589-.003-.226-.001-.226-.005-.229-.245l-.001-.187v-8.473c0-.689-.065-1.369-.307-2.02-.319-.857-.872-1.485-1.793-1.708-.827-.201-1.619-.083-2.33.391-.914.61-1.457 1.46-1.563 2.568a8.078 8.078 0 0 0-.033.746l.001 8.473v.187c-.001.291.02.268-.27.268h-3.465c-.331-.001-.294.034-.295-.304 0-2.596-.004-5.192.001-7.787.005-2.378.002-4.755-.12-7.131-.003-.073-.004-.145-.008-.218-.005-.09.037-.135.129-.132H50.342c.26 0 .268.001.293.267.056.578.104 1.157.154 1.736l.025.291c.158-.018.183-.123.234-.194 1.107-1.575 2.643-2.348 4.549-2.436.821-.038 1.619.055 2.384.371a4.521 4.521 0 0 1 2.406 2.242c.04.082.061.173.148.25.097-.067.144-.172.209-.26.902-1.222 2.066-2.071 3.55-2.433 1.079-.262 2.169-.272 3.238.049 1.646.493 2.696 1.618 3.296 3.194.3.792.447 1.619.501 2.461.021.342.026.685.026 1.027.002 2.886.002 5.773.001 8.659 0 .399.051.347-.346.347zm-32.204-6.499c-.198.145-.2.145-.11.366.33.809.483 1.65.474 2.522-.029 3.011-2.251 5.659-5.217 6.229-.628.12-1.261.143-1.894.144-4.172.01-8.345.006-12.517.006-4.152 0-8.304.007-12.455-.006-.957-.003-1.914-.075-2.821-.429-1.939-.756-3.197-2.161-3.859-4.104C-.8 18.916.754 14.821 4 12.944c.15-.087.257-.163.273-.368.195-2.455 1.178-4.564 2.882-6.328 1.829-1.893 4.075-2.971 6.69-3.287a10.402 10.402 0 0 1 1.9-.058.464.464 0 0 0 .407-.159c1.418-1.5 3.162-2.407 5.21-2.61 3.361-.337 6.07.854 8.042 3.627.161.226.096.234.389.15 3.073-.879 5.801 1.197 6.21 4.068.025.175.042.351.055.527.017.234.013.238.241.253.397.023.786.097 1.158.231 1.823.652 2.989 1.915 3.33 3.819.354 1.977-.328 3.612-1.906 4.867-.024.019-.051.035-.075.055zm65.377-8.867c-.021-.17.061-.208.217-.208 1.238.004 2.475.005 3.713 0 .16-.001.234.044.217.209-.007.072-.001.145-.001.218v14.729c0 .072-.008.145.001.217.024.176-.063.205-.218.205a417.77 417.77 0 0 0-3.713-.001c-.152.001-.242-.029-.216-.205.009-.061.001-.124.001-.186V9.05c0-.061.007-.124-.001-.186z" class="cls-2"/><path d="M50.783 11.03c.157-.018.182-.123.232-.195 1.106-1.584 2.64-2.362 4.543-2.45.819-.037 1.617.056 2.381.373a4.524 4.524 0 0 1 2.401 2.255c.04.082.061.175.149.252.096-.067.144-.174.209-.262.899-1.229 2.061-2.083 3.543-2.446 1.077-.264 2.166-.274 3.234.048 1.643.497 2.692 1.628 3.289 3.212.301.797.447 1.628.501 2.475.022.344.027.689.027 1.033.002 2.903.002 5.806 0 8.71 0 .4.051.347-.345.348-1.132.002-2.264.001-3.397 0-.314 0-.28.024-.28-.288-.001-2.787.001-5.576-.002-8.363 0-.66-.061-1.313-.237-1.952a4.123 4.123 0 0 0-.248-.674c-.579-1.235-1.677-1.641-2.818-1.485-1.454.201-2.555 1.411-2.678 2.88a9.591 9.591 0 0 0-.034.813l.001 8.646c0 .072-.008.146.001.219.022.168-.052.209-.21.207-1.195-.005-2.39-.002-3.585-.003-.225 0-.225-.004-.228-.245v-.189l-.001-8.521c0-.692-.065-1.377-.307-2.031-.318-.863-.87-1.493-1.789-1.718-.827-.202-1.617-.085-2.327.393-.913.614-1.455 1.467-1.561 2.582-.023.251-.033.5-.033.751l.001 8.521v.188c-.001.293.02.269-.269.269h-3.459c-.331 0-.295.035-.295-.305-.001-2.61-.004-5.222 0-7.832.005-2.391.002-4.781-.119-7.171-.004-.073-.005-.146-.008-.219-.005-.091.037-.135.128-.133h.156c.987 0 1.974-.001 2.961 0 .26 0 .268.002.294.268.055.581.103 1.165.153 1.746l.026.293" class="cls-3"/><path d="M137.456 4.518a8.252 8.252 0 0 0-1.98-.125c-.385.02-.763.09-1.129.207-1.001.324-1.66.995-1.978 2.002-.203.647-.216 1.313-.205 1.983.001.107.042.152.147.148.083-.003.166 0 .249 0h9.094c.231.006.231.006.236.247v.156c0 4.957.001 9.914-.001 14.871 0 .433.061.377-.38.377-1.131.004-2.263.001-3.395.001-.072 0-.145-.002-.218-.001-.091.002-.129-.041-.127-.132.002-.083 0-.167 0-.25V12.199v-.187c-.002-.304-.002-.305-.304-.307h-4.952c-.341 0-.313-.021-.313.329l-.001 11.927c0 .424 0 .424-.433.424h-3.363c-.381 0-.338.023-.338-.331l-.001-11.896c0-.453 0-.453-.465-.453-.508 0-1.017-.004-1.526.004-.159.002-.219-.045-.218-.212.007-.846.002-1.691.004-2.536.001-.221.006-.226.226-.227.581-.003 1.162 0 1.744-.002.231 0 .237-.003.234-.242-.01-.764.024-1.524.209-2.269.508-2.053 1.781-3.442 3.694-4.266.954-.41 1.957-.612 2.988-.696a10.852 10.852 0 0 1 1.958.008c.124.013.247.041.37.041.174 0 .197.094.197.239-.004.939-.002 1.878-.003 2.818 0 .039-.01.08-.02.153" class="cls-4"/><path d="M84.704 22.037c-.111.05-.146.156-.207.238-.944 1.27-2.201 2.033-3.742 2.329a6.856 6.856 0 0 1-2.781-.023c-1.79-.394-3.004-1.474-3.674-3.183-.35-.892-.498-1.827-.551-2.778-.016-.292-.013-.585-.013-.877V9.101v-.156c.004-.228.005-.232.216-.232 1.224-.002 2.448-.002 3.672 0 .224 0 .224.004.23.218.002.063.001.126.001.189 0 2.733-.001 5.468.002 8.203 0 .66.064 1.312.241 1.95.039.14.082.28.134.416.43 1.107 1.216 1.737 2.413 1.806 1.346.077 2.405-.437 3.144-1.578.311-.479.498-1.006.495-1.589-.001-.167.006-.334.006-.501V9.091c0-.449-.028-.377.387-.378 1.12-.003 2.24-.001 3.361-.001.072 0 .145.003.218-.001.113-.006.177.032.169.159-.005.083-.001.167-.001.25.005 4.101.004 8.204.019 12.305.003.855.063 1.71.097 2.565.003.084.005.167.011.251.007.096-.044.129-.131.126h-.124l-3.08.001c-.281 0-.255-.002-.275-.246-.052-.645-.112-1.29-.17-1.934-.005-.047.009-.104-.067-.151M91.292 20.61a9.627 9.627 0 0 0 1.933.783c.879.252 1.771.403 2.69.343.441-.029.866-.12 1.272-.303 1.184-.529 1.203-2.105.287-2.742a5.683 5.683 0 0 0-1.011-.556c-.499-.215-1.016-.38-1.526-.561-.83-.296-1.62-.67-2.325-1.201-.705-.532-1.284-1.171-1.537-2.027-.468-1.589-.067-2.987 1.052-4.186.737-.79 1.683-1.245 2.72-1.523 1.115-.298 2.25-.325 3.392-.221.951.085 1.878.281 2.765.641.509.206.51.207.354.711l-.615 1.987c-.025.078-.053.155-.077.225-.069.022-.111-.009-.157-.031a7.718 7.718 0 0 0-3.129-.81c-.516-.024-1.024.029-1.504.234-.682.292-1.024.834-.988 1.538.019.375.185.672.462.916.244.217.528.372.821.51.576.27 1.176.483 1.778.69.751.259 1.48.568 2.148 1.003.806.524 1.45 1.187 1.777 2.105.6 1.687.298 3.938-1.746 5.268-.808.526-1.703.839-2.649.988-2.101.331-4.167.191-6.176-.539-.244-.089-.478-.205-.718-.308-.081-.035-.14-.071-.106-.185.272-.907.538-1.817.813-2.749" class="cls-3"/><path d="M156.473 20.641c.133-.001.212.076.304.12 1.347.643 2.753 1.036 4.264.978.475-.019.936-.105 1.365-.317.705-.347 1.074-1.008.841-1.93-.085-.336-.3-.587-.571-.796-.308-.236-.655-.405-1.011-.559-.498-.215-1.016-.381-1.527-.563-.961-.343-1.869-.783-2.645-1.456-.697-.603-1.204-1.331-1.351-2.248-.229-1.434.185-2.684 1.196-3.732.751-.779 1.693-1.236 2.732-1.509 1.118-.294 2.254-.316 3.397-.211a9.693 9.693 0 0 1 2.768.648c.478.194.478.196.332.672-.208.673-.417 1.344-.624 2.017-.024.079-.04.161-.094.228-.103.013-.176-.057-.258-.095a7.706 7.706 0 0 0-3.084-.753c-.527-.018-1.048.042-1.527.281-.622.311-.937.803-.897 1.503.019.326.149.598.379.829.231.232.511.393.802.536.6.297 1.231.518 1.863.735.674.232 1.328.503 1.941.867.46.274.884.592 1.243.99.751.83 1.053 1.818 1.03 2.915-.031 1.517-.69 2.704-1.947 3.566-.815.558-1.733.876-2.701 1.031-2.114.337-4.192.194-6.214-.54-.244-.09-.478-.207-.718-.311-.091-.039-.116-.092-.086-.195.27-.899.533-1.802.798-2.701" class="cls-4"/><path d="M168.476 4.736h10.247v19.928h-10.247V4.736z" class="cls-1"/><path d="M174.817 4.744V8.403c0 .289.002.291.281.291l3.346.001c.275 0 .278.003.278.267v2.404c0 .29-.002.292-.283.292h-3.284c-.38 0-.338-.019-.338.331l-.001 6.555c0 .491.03.978.158 1.453.254.947.838 1.403 1.82 1.422.516.01 1.032.006 1.54-.112.176-.042.189-.027.194.164.022.854.037 1.707.063 2.559.005.165-.048.238-.206.285a7.815 7.815 0 0 1-1.427.273c-.73.075-1.462.117-2.194.018-1.04-.14-1.98-.491-2.727-1.269-.588-.613-.89-1.366-1.064-2.182a9.336 9.336 0 0 1-.193-1.951l-.002-7.086c0-.073.002-.146 0-.219-.005-.234-.005-.238-.242-.24-.6-.002-1.198 0-1.797-.001-.257-.001-.261-.003-.261-.254-.002-.821-.002-1.643 0-2.466.001-.237.005-.242.24-.242.578-.003 1.156-.001 1.735-.001.374-.001.324.017.325-.343.002-.758 0-1.518 0-2.277.001-.287.001-.289.258-.359 1.165-.316 2.331-.63 3.496-.944.079-.022.158-.05.285-.028" class="cls-4"/><path d="M123.058 12.001c-.06-.013-.102-.017-.139-.032-1.081-.469-2.219-.593-3.38-.532-1.139.06-2.175.42-3.038 1.19-.873.78-1.339 1.776-1.505 2.919-.131.904-.085 1.804.198 2.673.576 1.769 1.822 2.803 3.632 3.14 1.376.257 2.727.069 4.044-.378l.316-.112.328 1.649.168.852c.083.407.084.408-.297.542-.449.16-.911.277-1.379.372a14.226 14.226 0 0 1-3.746.246c-1.19-.078-2.337-.348-3.412-.873-1.813-.887-3.065-2.282-3.694-4.197-.611-1.865-.627-3.754-.001-5.616.825-2.455 2.54-4.05 4.964-4.901 1.572-.554 3.198-.675 4.849-.52.838.078 1.66.237 2.461.505.058.02.115.048.176.061.164.033.182.127.143.273-.156.6-.304 1.203-.455 1.805l-.233.934" class="cls-3"/><path d="M149.133 11.672c.105-.103.124-.221.17-.321.677-1.481 1.766-2.471 3.347-2.87.587-.149 1.183-.149 1.782-.057.143.022.186.079.185.222-.005 1.098-.001 2.194-.003 3.291-.001.22-.007.221-.235.191-.576-.075-1.153-.101-1.726.001-1.536.271-2.623 1.342-2.933 2.885a6.35 6.35 0 0 0-.114 1.246c0 2.591.001 5.182-.001 7.773 0 .396.051.351-.343.352-1.145.003-2.291.001-3.437 0-.368 0-.322.035-.323-.341-.002-3.918 0-7.837-.007-11.755a48.846 48.846 0 0 0-.102-3.132c-.008-.105-.009-.21-.014-.314-.005-.09.031-.138.124-.136.062.002.124 0 .186 0l2.911-.001c.356 0 .304-.008.323.326.044.783.086 1.565.132 2.347.005.091-.009.19.078.293" class="cls-4"/><path d="M108.418 16.534v7.428c0 .073-.008.147.002.218.023.177-.064.208-.22.206a582.195 582.195 0 0 0-3.738 0c-.153 0-.244-.029-.218-.206.01-.061.002-.125.002-.188V9.106c0-.063.007-.125-.001-.187-.022-.171.061-.21.218-.209 1.246.004 2.492.004 3.738 0 .16-.001.235.043.219.209-.008.073-.002.147-.002.22v7.395zM105.924 6.443c-.483.007-.909-.095-1.292-.338-.623-.393-.877-1.081-.67-1.79.055-.189.136-.365.24-.529.659-1.048 2.144-1.605 3.323-1.231.692.218 1.156.657 1.239 1.411.041.379-.065.732-.259 1.057-.436.729-1.101 1.139-1.909 1.345a2.39 2.39 0 0 1-.672.075" class="cls-3"/><path d="M139.94 6.442c-.49.012-.916-.086-1.303-.326-.621-.384-.881-1.052-.695-1.759.061-.231.161-.443.294-.641.676-1.006 2.117-1.523 3.275-1.164.669.209 1.131.625 1.237 1.351.059.404-.053.777-.257 1.12-.435.731-1.104 1.142-1.914 1.346a2.208 2.208 0 0 1-.637.073" class="cls-4"/><g><path d="M0 .077h40.87v26.922H0V.077z" class="cls-1"/><path d="M38.873 17.676c-.024.019-.05.035-.076.055-.197.144-.199.145-.109.367.33.808.483 1.649.475 2.521-.03 3.011-2.251 5.659-5.217 6.229-.628.12-1.261.143-1.893.144-4.172.01-8.344.006-12.515.006-4.151 0-8.301.007-12.453-.006-.956-.003-1.913-.075-2.82-.429-1.939-.756-3.197-2.161-3.858-4.102C-.8 18.916.754 14.821 4 12.944c.149-.087.256-.163.272-.368.196-2.455 1.177-4.564 2.882-6.328 1.829-1.893 4.073-2.971 6.688-3.287a10.402 10.402 0 0 1 1.9-.058.461.461 0 0 0 .406-.159c1.418-1.5 3.162-2.407 5.211-2.61 3.359-.337 6.067.854 8.039 3.627.161.226.097.234.389.15 3.073-.879 5.8 1.197 6.209 4.068.025.175.042.351.055.527.016.234.014.238.241.253.397.023.785.097 1.158.231 1.822.652 2.988 1.915 3.329 3.819.354 1.977-.328 3.612-1.906 4.867zM14.81 5.328c-2.057.125-3.883.878-5.439 2.227-1.799 1.557-2.842 3.517-3.039 5.903-.014.163-.068.258-.212.338a5.792 5.792 0 0 0-1.807 1.51c-1.648 2.114-2.105 4.442-1.082 6.954.674 1.654 1.919 2.73 3.677 3.173.581.147 1.176.131 1.768.131 3.515.003 7.031.001 10.546.001l5.398.001c1.799 0 3.599-.001 5.397-.003a8.25 8.25 0 0 0 1.275-.083c2.404-.388 4.271-2.317 4.559-4.717.279-2.332-1.006-4.596-3.166-5.568a5.244 5.244 0 0 0-1.77-.459c-.337-.026-.338-.029-.353-.378a5.23 5.23 0 0 0-.129-.891c-.661-3.016-3.613-4.835-6.591-4.062-.15.04-.304.147-.447.106-.16-.047-.202-.248-.301-.379-2.076-2.756-4.853-4.009-8.284-3.804zm23.167 6.379c-.636-1.485-1.819-2.304-3.423-2.504-.282-.035-.272.007-.298-.311l-.004-.061c-.21-2.604-2.646-4.441-5.235-3.696-.181.051-.274.012-.378-.143-2.232-3.299-6.805-4.034-10.051-1.794-.055.038-.133.058-.143.14.006.013.009.028.016.03.176.064.353.122.528.188 2.208.829 3.985 2.206 5.293 4.173.145.219.145.22.39.146a6.05 6.05 0 0 1 1.251-.246c2.112-.179 3.891.514 5.31 2.074 1.011 1.114 1.535 2.449 1.654 3.946.033.421.037.423.444.462a6.355 6.355 0 0 1 3.389 1.369c.204.16.394.338.612.526.04-.043.071-.07.096-.104.976-1.295 1.184-2.712.549-4.195z" class="cls-3"/></g><path d="M37.342 16.025c-.218-.189-.407-.366-.61-.527a6.331 6.331 0 0 0-3.386-1.37c-.406-.04-.411-.041-.444-.462-.118-1.498-.642-2.836-1.652-3.949-1.417-1.563-3.194-2.255-5.303-2.077a6.12 6.12 0 0 0-1.25.246c-.244.074-.245.073-.389-.145-1.307-1.97-3.081-3.348-5.288-4.178-.174-.065-.351-.125-.526-.188-.007-.003-.01-.017-.017-.031.01-.081.088-.103.143-.141 3.243-2.24 7.81-1.506 10.04 1.798.104.154.196.194.377.142 2.586-.746 5.019 1.093 5.229 3.7l.005.062c.026.318.015.275.297.31 1.603.2 2.783 1.021 3.418 2.506.634 1.485.427 2.904-.548 4.2-.025.033-.056.061-.096.104" class="cls-2"/></svg>